<?xml version="1.0" encoding="utf-8"?>
<!-- Generator: Adobe Illustrator 22.0.0, SVG Export Plug-In . SVG Version: 6.00 Build 0)  -->
<svg version="1.1" id="图层_1" xmlns="http://www.w3.org/2000/svg" xmlns:xlink="http://www.w3.org/1999/xlink" x="0px" y="0px"
	 viewBox="0 0 918 1051.1" style="enable-background:new 0 0 918 1051.1;" xml:space="preserve">
<style type="text/css">
	.st0{font-family:'Silom';}
	.st1{font-size:24px;}
	.st2{fill:none;}
	.st3{font-size:18px;}
	.st4{stroke:#000000;stroke-width:0.5;stroke-miterlimit:10;}
	.st5{font-family:'OratorStd-Slanted';}
</style>
<title>portfolioDesign42</title>
<path d="M915,1048.3H3V3h912 M918,0H0v1051.1h918V0z"/>
<rect x="7" y="6.3" width="21" height="21"/>
<rect x="891" y="6.3" width="21" height="21"/>
<rect x="6.5" y="1021.7" width="21" height="21"/>
<rect x="890.5" y="1021.7" width="21" height="21"/>
<text transform="matrix(1 0 0 1 387.4884 27.3)" class="st0 st1">ANIMATION</text>
<rect x="27.5" y="545" class="st2" width="863" height="463.9"/>
<text transform="matrix(1 0 0 1 27.5 566.0178)"><tspan x="0" y="0" class="st0 st1">Life of Butterflies </tspan><tspan x="0" y="43.2" class="st0 st3">This animation has an anti-war theme in its core. It basically shows a life circle of but</tspan><tspan x="832.5" y="43.2" class="st0 st3">-</tspan><tspan x="0" y="64.8" class="st0 st3">terflies and tries to view human’s endless and meaningless wars from butterflies’ per</tspan><tspan x="838.6" y="64.8" class="st0 st3">-</tspan><tspan x="0" y="86.4" class="st0 st3">spective. </tspan><tspan x="0" y="129.6" class="st0 st3">The narrative is simple. It fellows the life journey of butterflies and shows different </tspan><tspan x="0" y="151.2" class="st0 st3">scenes among this journey as a glimpse to show what’s happening in the human world. </tspan><tspan x="0" y="172.8" class="st0 st3">The sound and all stuffs scattering around serve as cues for audience to guess what’s </tspan><tspan x="0" y="194.4" class="st0 st3">happening, and leave much of space for them to interpret those scenes.</tspan><tspan x="0" y="237.6" class="st0 st3">Colors used in this work are only red, white and black, which gives the picture a concise </tspan><tspan x="0" y="259.2" class="st0 st3">and clear look. There is only two shots in the video, and an effect of camera movement </tspan><tspan x="0" y="280.8" class="st0 st3">was achieved by manipulating motions of different objects. The background sounds are </tspan><tspan x="0" y="302.4" class="st0 st3">made of varies of different sound effect pieces found on the FreeSound and cut togeth</tspan><tspan x="843.2" y="302.4" class="st0 st3">-</tspan><tspan x="0" y="324" class="st0 st3">er in Audition.</tspan><tspan x="96.7" y="367.2" class="st4 st5 st3">-Clips are presented during NYU SH’s 2018 Graduation Ceremony- </tspan></text>
</svg>
