<?xml version="1.0" encoding="utf-8"?>
<!-- Generator: Adobe Illustrator 22.0.0, SVG Export Plug-In . SVG Version: 6.00 Build 0)  -->
<svg version="1.1" id="图层_1" xmlns="http://www.w3.org/2000/svg" xmlns:xlink="http://www.w3.org/1999/xlink" x="0px" y="0px"
	 viewBox="0 0 918 1051.1" style="enable-background:new 0 0 918 1051.1;" xml:space="preserve">
<style type="text/css">
	.st0{fill:#FFFFFF;}
	.st1{font-family:'Silom';}
	.st2{font-size:24px;}
	.st3{fill:none;}
	.st4{font-size:18px;}
	.st5{font-family:'MicrosoftYaHei';}
	.st6{font-family:'OratorStd-Slanted';}
</style>
<title>portfolioDesign42</title>
<path class="st0" d="M915,1048.3H3V3h912 M918,0H0v1051.1h918V0z"/>
<rect x="7" y="6.3" class="st0" width="21" height="21"/>
<rect x="891" y="6.3" class="st0" width="21" height="21"/>
<rect x="6.5" y="1023.7" class="st0" width="21" height="21"/>
<rect x="890.5" y="1023.7" class="st0" width="21" height="21"/>
<text transform="matrix(1 0 0 1 351.4889 27.3)" class="st0 st1 st2">GAME ART DESIGN</text>
<rect x="27.5" y="550.3" class="st3" width="863" height="461.5"/>
<text transform="matrix(1 0 0 1 27.5 571.2746)" class="st0 st1 st2">K.U.N.</text>
<text transform="matrix(1 0 0 1 27.5 614.4746)" class="st0 st1 st4">This project was inspired by one piece in the Chinese traditional classic Daodejind </text>
<text transform="matrix(1 0 0 1 827.1 613.6631)" class="st0 st5 st4">道德經</text>
<text transform="matrix(1 0 0 1 881.1 614.4746)" class="st0 st1 st4">, </text>
<text transform="matrix(1 0 0 1 27.5 636.0746)" class="st0 st1 st4">in which it describes a mythical creature Kun </text>
<text transform="matrix(1 0 0 1 470 635.2631)" class="st0 st5 st4">鯤</text>
<text transform="matrix(1 0 0 1 488 636.0746)" class="st0 st1 st4">. And Kun is described as “its back is I do </text>
<text transform="matrix(1 0 0 1 27.5 657.6746)" class="st0 st1 st4">not know how many thousand li in breadth. When it is moved, it flies, its wings obscuring </text>
<text transform="matrix(1 0 0 1 27.5 679.2746)" class="st0 st1 st4">the sky like clouds” (</text>
<text transform="matrix(1 0 0 1 230 678.4631)" class="st0 st5 st4">逍遙遊</text>
<text transform="matrix(1 0 0 1 284 679.2746)" class="st0 st1 st4">). </text>
<text transform="matrix(1 0 0 1 27.5 722.4746)" class="st0 st1 st4">Started from this image, we mapped the concept of Kun into a half-bio-half-machine </text>
<text transform="matrix(1 0 0 1 27.5 744.0746)" class="st0 st1 st4">creature which serve as an ark to transport survivors in a space age. A little boy, who </text>
<text transform="matrix(1 0 0 1 27.5 765.6746)" class="st0 st1 st4">was the first person woke up from a long journey, serve as the main character, trying to </text>
<text transform="matrix(1 0 0 1 27.5 787.2746)" class="st0 st1 st4">save the mission. We tried to keep the whole game experience concise enough. There is </text>
<text transform="matrix(1 0 0 1 27.5 808.8746)" class="st0 st1 st4">no disturbing instructions, all players need to do is to roam around and explore the </text>
<text transform="matrix(1 0 0 1 27.5 830.4746)" class="st0 st1 st4">whole map to see what can be done. </text>
<text transform="matrix(1 0 0 1 27.5 873.6746)" class="st0 st1 st4">I was working with the visual design team to design the visual experience. We chose </text>
<text transform="matrix(1 0 0 1 27.5 895.2746)" class="st0 st1 st4">dark colors for both scenes and objects to depict this apocalyptic world, as well as </text>
<text transform="matrix(1 0 0 1 27.5 916.8746)" class="st0 st1 st4">convey the unique atmosphere to players. Instead of hand drawing anything, we ap</text>
<text transform="matrix(1 0 0 1 843.7 916.8746)" class="st0 st1 st4">-</text>
<text transform="matrix(1 0 0 1 27.5 938.4746)" class="st0 st1 st4">plied Illustrator as a tool of assassinating coloring process and making animations. Due </text>
<text transform="matrix(1 0 0 1 27.5 960.0746)" class="st0 st1 st4">to the features of Illustrator, we tended to use large color patterns and used gradient </text>
<text transform="matrix(1 0 0 1 27.5 981.6746)" class="st0 st1 st4">color.</text>
<text transform="matrix(1 0 0 1 189 1003.2746)" class="st0 st6 st4">-Enter the Final of NetEase Mini Game Competition- </text>
<text transform="matrix(1 0 0 1 189 1003.2746)" class="st0 st6 st4">-Enter the Final of NetEase Mini Game Competition- </text>
</svg>
