<?xml version="1.0" encoding="utf-8"?>
<!-- Generator: Adobe Illustrator 22.0.0, SVG Export Plug-In . SVG Version: 6.00 Build 0)  -->
<svg version="1.1" id="图层_1" xmlns="http://www.w3.org/2000/svg" xmlns:xlink="http://www.w3.org/1999/xlink" x="0px" y="0px"
	 viewBox="0 0 918 692.2" style="enable-background:new 0 0 918 692.2;" xml:space="preserve">
<style type="text/css">
	.st0{font-family:'Silom';}
	.st1{font-size:31.2674px;}
</style>
<title>portfolioDesign42</title>
<path d="M915,3v686.2H3V3H915 M918,0H0v692.2h918V0z"/>
<rect x="7" y="6.3" width="21" height="21"/>
<rect x="891" y="6.3" width="21" height="21"/>
<rect x="7" y="664" width="21" height="21"/>
<rect x="891" y="664" width="21" height="21"/>
<path d="M8.1,64.4V36.2h12.5c1.6,0,3.2,0.7,4.4,1.9c1.2,1.2,1.9,2.7,1.8,4.4v3.1c0,1.6-0.7,3.2-1.8,4.4c-1.1,1.2-2.7,1.9-4.4,1.9
	h-6.3v12.6H8.1V64.4z M14.4,48.8h3.1c0.8,0,1.7-0.3,2.2-0.9c0.6-0.6,0.9-1.4,0.9-2.2v-3.1c0-1.7-1.4-3.1-3.1-3.2l0,0h-3.1V48.8z"/>
<path d="M14.4,73.8h6.3c1.6,0,3.2,0.7,4.4,1.9c1.2,1.2,1.9,2.7,1.8,4.4v15.6c0,1.7-0.6,3.3-1.8,4.4c-1.1,1.2-2.7,1.9-4.4,1.9h-6.3
	c-1.6,0-3.2-0.7-4.4-1.9c-1.2-1.2-1.9-2.8-1.9-4.4V80.1c0-1.7,0.7-3.3,1.9-4.4C11.1,74.5,12.7,73.8,14.4,73.8z M14.4,80.1v15.6
	c0,0.8,0.3,1.6,0.9,2.2c0.6,0.6,1.4,0.9,2.2,0.9c0.8,0,1.7-0.3,2.2-0.9c0.6-0.6,0.9-1.4,0.9-2.2V80.1c0-1.7-1.4-3.1-3.1-3.1
	c-0.8,0-1.6,0.3-2.2,0.9C14.7,78.4,14.3,79.2,14.4,80.1z"/>
<path d="M8.1,139.5v-28.2h12.5c1.6,0,3.2,0.7,4.4,1.9c1.2,1.2,1.9,2.8,1.8,4.4v1.7c0,1.5-0.5,2.9-1.4,4c-1,1.3-2.6,1.9-4.8,1.9h3.1
	c0.8,0,1.6,0.3,2.2,0.9s0.9,1.4,0.9,2.2v11.1h-6.2V130c0-0.8-0.3-1.6-0.9-2.2c-0.6-0.6-1.4-0.9-2.2-0.9h-3.1v12.5L8.1,139.5z
	 M14.4,123.9h3.1c0.8,0,1.7-0.3,2.2-0.9c0.6-0.6,0.9-1.4,0.9-2.2v-3.1c0-1.7-1.4-3.1-3.1-3.2l0,0h-3.1V123.9z"/>
<path d="M14.4,177.1V152H8.1v-3.1h18.8v3.1h-6.3v25.1H14.4z"/>
<path d="M9.7,214.6v-28.2h15.7v3.1H16v9.4h6.3v3.2H16v12.5H9.7z"/>
<path d="M14.4,224h6.3c1.6,0,3.2,0.7,4.4,1.9c1.2,1.2,1.9,2.7,1.8,4.4v15.6c0,1.7-0.6,3.3-1.8,4.4c-1.1,1.2-2.7,1.9-4.4,1.9h-6.3
	c-1.6,0-3.2-0.7-4.4-1.8c-1.2-1.2-1.9-2.8-1.9-4.4v-15.6c0-1.7,0.7-3.3,1.9-4.4C11.1,224.7,12.7,224,14.4,224z M14.4,230.3v15.6
	c0,0.8,0.3,1.6,0.9,2.2c0.6,0.6,1.4,0.9,2.2,0.9c0.8,0,1.7-0.3,2.2-0.9c0.6-0.6,0.9-1.4,0.9-2.2v-15.6c0-1.7-1.4-3.1-3.1-3.2l0,0
	c-0.8,0-1.6,0.3-2.2,0.9C14.7,228.6,14.3,229.4,14.4,230.3z"/>
<path d="M9.7,289.7v-28.2H16v25.1h9.4v3.1H9.7z"/>
<path d="M14.4,327.3v-28.2h6.2v28.2H14.4z"/>
<path d="M14.4,336.7h6.3c1.6,0,3.2,0.7,4.4,1.9c1.2,1.2,1.9,2.7,1.8,4.4v15.6c0,1.7-0.6,3.3-1.8,4.4c-1.1,1.2-2.7,1.9-4.4,1.9h-6.3
	c-1.6,0-3.2-0.7-4.4-1.9c-1.2-1.2-1.9-2.8-1.9-4.4V343c0-1.7,0.7-3.3,1.9-4.4C11.1,337.3,12.7,336.7,14.4,336.7z M14.4,342.9v15.6
	c0,0.8,0.3,1.6,0.9,2.2c0.6,0.6,1.4,0.9,2.2,0.9c0.8,0,1.7-0.3,2.2-0.9c0.6-0.6,0.9-1.4,0.9-2.2v-15.6c0-1.7-1.4-3.1-3.1-3.1
	c-0.8,0-1.6,0.3-2.2,0.9C14.7,341.3,14.3,342.1,14.4,342.9L14.4,342.9z"/>
<text transform="matrix(1 0 0 1 288.6384 77.8002)" class="st0 st1">INTERACTIVE PROJECT</text>
<text transform="matrix(1 0 0 1 274.318 182.0651)" class="st0 st1">FACIAL SKETCH DATASET</text>
<text transform="matrix(1 0 0 1 322.5163 286.3301)" class="st0 st1">GAME ART DESIGN</text>
<text transform="matrix(1 0 0 1 356.3942 494.8598)" class="st0 st1">WEB PROJECT</text>
<text transform="matrix(1 0 0 1 369.4167 390.5945)" class="st0 st1">ANIMATION</text>
<text transform="matrix(1 0 0 1 321.2034 599.1241)" class="st0 st1">GRAPHIC DESIGNS</text>
</svg>
